<svg xmlns="http://www.w3.org/2000/svg" viewBox="0 0 2145 2187"><defs><style>.cls-1{fill:#afb5bf;}.cls-2{font-size:348.76px;font-family:OleoScript-Regular, Oleo Script;}</style></defs><g id="FINAL_option_1" data-name="FINAL option 1"><path d="M442.42,1252.92H889.59c-18.43,25.48-33,48.9-50.77,69.63-69.38,81-157.81,126.74-263.84,137.8-6,.63-15.64-2.66-18.33-7.22-38.17-64.74-75.42-130-112.87-195.17C443.27,1257.07,443.22,1255.93,442.42,1252.92Z"/><path class="cls-1" d="M186.66,876.79c27.4-50.6,62.36-91.54,105.73-125.3,59.95-46.66,127.88-73.64,203.35-82.28,11.62-1.33,18.28,1.24,24.29,11.87,34.35,60.77,69.5,121.09,104.34,181.59,2.33,4,4.31,8.3,7.3,14.12Z"/><path d="M523.6,668.25c60.28-2.33,114.71,8.22,167,30.21,67.4,28.37,122.33,72.7,166.62,130.76,8.51,11.16,9.48,19.82,1.87,32.59-34.92,58.6-68.55,118-102.7,177-2.6,4.51-5.62,8.78-9.91,15.44Z"/><path class="cls-1" d="M326.79,1075.54l224,388c-28.17-2.15-52.39-2.22-76-6.1-108.19-17.78-194.61-71.69-260.32-159.38-6.94-9.25-8-16.29-1.69-26.94,35-59.16,69-118.89,103.39-178.4C319,1087.8,322.17,1083,326.79,1075.54Z"/><path d="M421.75,889.88c-74.28,128.7-147.41,255.41-221.52,383.8-3.4-4.42-6.22-7.25-8.06-10.61-64.71-118.07-70.63-239-16.85-362.52,2.34-5.38,10.06-11.92,15.34-12,74-.79,148.11-.56,222.17-.51C414.87,888.07,416.91,888.86,421.75,889.88Z"/><path class="cls-1" d="M873.8,854.84c38.24,62.38,57.26,126.43,59.82,195.49a396.79,396.79,0,0,1-34.23,177.47c-3.58,8.1-7,14.47-18.12,14.4-73.58-.48-147.17-.29-220.76-.39-2,0-4.08-.7-9-1.6Z"/><text class="cls-2" transform="translate(1003.58 988.19)">Grant <tspan x="-36.44" y="418.51">Media</tspan></text></g></svg>